<?xml version="1.0" encoding="UTF-8" standalone="no"?>
<!-- Created with Inkscape (http://www.inkscape.org/) -->

<svg
   xmlns:dc="http://purl.org/dc/elements/1.1/"
   xmlns:cc="http://creativecommons.org/ns#"
   xmlns:rdf="http://www.w3.org/1999/02/22-rdf-syntax-ns#"
   xmlns:svg="http://www.w3.org/2000/svg"
   xmlns="http://www.w3.org/2000/svg"
   xmlns:sodipodi="http://sodipodi.sourceforge.net/DTD/sodipodi-0.dtd"
   xmlns:inkscape="http://www.inkscape.org/namespaces/inkscape"
   width="135.46631mm"
   height="135.46634mm"
   viewBox="0 0 135.46631 135.46634"
   version="1.1"
   id="svg8"
   inkscape:version="0.92.4 (5da689c313, 2019-01-14)"
   sodipodi:docname="search_placeholder.svg">
  <defs
     id="defs2" />
  <sodipodi:namedview
     id="base"
     pagecolor="#ffffff"
     bordercolor="#666666"
     borderopacity="1.0"
     inkscape:pageopacity="0.0"
     inkscape:pageshadow="2"
     inkscape:zoom="0.35"
     inkscape:cx="255.99931"
     inkscape:cy="255.99937"
     inkscape:document-units="mm"
     inkscape:current-layer="g876"
     showgrid="false"
     fit-margin-top="0"
     fit-margin-left="0"
     fit-margin-right="0"
     fit-margin-bottom="0"
     inkscape:window-width="1366"
     inkscape:window-height="721"
     inkscape:window-x="-4"
     inkscape:window-y="-4"
     inkscape:window-maximized="1" />
  <metadata
     id="metadata5">
    <rdf:RDF>
      <cc:Work
         rdf:about="">
        <dc:format>image/svg+xml</dc:format>
        <dc:type
           rdf:resource="http://purl.org/dc/dcmitype/StillImage" />
        <dc:title></dc:title>
      </cc:Work>
    </rdf:RDF>
  </metadata>
  <g
     inkscape:label="Layer 1"
     inkscape:groupmode="layer"
     id="layer1"
     transform="translate(91.923627,-81.100166)">
    <g
       id="g876"
       transform="matrix(0.26458333,0,0,0.26458333,-91.923627,81.100166)">
      <g
         id="g819"
         style="fill:#000000;fill-opacity:0.30275229">
	<g
   id="g817"
   style="fill:#000000;fill-opacity:0.30275229">
		<path
   id="path815"
   d="M 508.874,478.708 360.142,329.976 c 28.21,-34.827 45.191,-79.103 45.191,-127.309 C 405.333,90.917 314.416,0 202.666,0 90.916,0 0,90.917 0,202.667 c 0,111.75 90.917,202.667 202.667,202.667 48.206,0 92.482,-16.982 127.309,-45.191 l 148.732,148.732 c 4.167,4.165 10.919,4.165 15.086,0 l 15.081,-15.082 c 4.165,-4.166 4.165,-10.92 -10e-4,-15.085 z M 202.667,362.667 c -88.229,0 -160,-71.771 -160,-160 0,-88.229 71.771,-160 160,-160 88.229,0 160,71.771 160,160 0,88.229 -71.771,160 -160,160 z"
   inkscape:connector-curvature="0"
   style="fill:#000000;fill-opacity:0.30275229" />

	</g>

</g>
      <g
         id="g821">
</g>
      <g
         id="g823">
</g>
      <g
         id="g825">
</g>
      <g
         id="g827">
</g>
      <g
         id="g829">
</g>
      <g
         id="g831">
</g>
      <g
         id="g833">
</g>
      <g
         id="g835">
</g>
      <g
         id="g837">
</g>
      <g
         id="g839">
</g>
      <g
         id="g841">
</g>
      <g
         id="g843">
</g>
      <g
         id="g845">
</g>
      <g
         id="g847">
</g>
      <g
         id="g849">
</g>
    </g>
  </g>
</svg>
